<svg xmlns="http://www.w3.org/2000/svg" width="14.36" height="14.36" viewBox="0 0 14.36 14.36">
  <g id="exchange" transform="translate(0 0)">
    <path id="XMLID_17_" d="M13.707,3.263H2.228L4.378,1.114A.653.653,0,1,0,3.454.191L.191,3.454a.653.653,0,0,0,0,.923L3.454,7.641a.653.653,0,1,0,.923-.923L2.228,4.569H13.707a.653.653,0,0,0,0-1.305Z" transform="translate(0)" fill="#1fba30"/>
    <path id="XMLID_18_" d="M10.905,150.191a.653.653,0,0,0-.923.923l2.149,2.149H.653a.653.653,0,1,0,0,1.305H12.132l-2.149,2.149a.653.653,0,1,0,.923.923l3.264-3.264a.653.653,0,0,0,0-.923Z" transform="translate(0 -143.473)" fill="#1fba30"/>
  </g>
</svg>
