<svg id="instagram_3_" data-name="instagram (3)" xmlns="http://www.w3.org/2000/svg" width="43.338" height="43.338" viewBox="0 0 43.338 43.338">
  <path id="Path_63" data-name="Path 63" d="M305.548,128.774a.774.774,0,1,1-.774-.774A.774.774,0,0,1,305.548,128.774Zm0,0" transform="translate(-274.592 -115.618)" fill="#fff"/>
  <path id="Path_64" data-name="Path 64" d="M118.443,96H98.322A2.322,2.322,0,0,0,96,98.322v20.121a2.322,2.322,0,0,0,2.322,2.322h20.121a2.322,2.322,0,0,0,2.322-2.322V98.322A2.322,2.322,0,0,0,118.443,96Zm-10.061,20.121a7.739,7.739,0,1,1,7.739-7.739A7.739,7.739,0,0,1,108.382,116.121Zm8.513-13.93a2.322,2.322,0,1,1,2.322-2.322A2.322,2.322,0,0,1,116.9,102.191Zm0,0" transform="translate(-86.713 -86.713)" fill="#fff"/>
  <path id="Path_65" data-name="Path 65" d="M172.382,166.191A6.191,6.191,0,1,1,166.191,160,6.191,6.191,0,0,1,172.382,166.191Zm0,0" transform="translate(-144.522 -144.522)" fill="#fff"/>
  <path id="Path_66" data-name="Path 66" d="M21.669,0A21.669,21.669,0,1,0,43.338,21.669,21.669,21.669,0,0,0,21.669,0ZM35.6,31.73A3.874,3.874,0,0,1,31.73,35.6H11.608A3.874,3.874,0,0,1,7.739,31.73V11.608a3.874,3.874,0,0,1,3.869-3.869H31.73A3.874,3.874,0,0,1,35.6,11.608Zm0,0" fill="#fff"/>
</svg>
