<svg id="twitter-social-logotype" xmlns="http://www.w3.org/2000/svg" width="43.307" height="43.307" viewBox="0 0 43.307 43.307">
  <path id="Path_62" data-name="Path 62" d="M21.653,0A21.654,21.654,0,1,0,43.307,21.654,21.653,21.653,0,0,0,21.653,0ZM34.747,15.879q.015.383.016.769A18.635,18.635,0,0,1,15.946,35.465,18.743,18.743,0,0,1,5.808,32.493a.16.16,0,0,1-.064-.189.162.162,0,0,1,.17-.1,13.091,13.091,0,0,0,1.545.091,12.913,12.913,0,0,0,7.7-2.509,6.715,6.715,0,0,1-5.831-4.642.16.16,0,0,1,.183-.206,6.446,6.446,0,0,0,2.233.032,6.739,6.739,0,0,1-4.722-6.417v-.086a.16.16,0,0,1,.081-.136.158.158,0,0,1,.157,0,6.421,6.421,0,0,0,2.344.758A6.724,6.724,0,0,1,7.981,10.45a.159.159,0,0,1,.126-.079.157.157,0,0,1,.137.058,18.523,18.523,0,0,0,13.19,6.781,6.8,6.8,0,0,1-.129-1.322,6.721,6.721,0,0,1,11.559-4.661,12.95,12.95,0,0,0,4.027-1.554.16.16,0,0,1,.234.187,6.707,6.707,0,0,1-2.361,3.318,12.914,12.914,0,0,0,3.026-.918.16.16,0,0,1,.2.236A13.389,13.389,0,0,1,34.747,15.879Z" fill="#fff"/>
</svg>
