<svg id="youtube-symbol" xmlns="http://www.w3.org/2000/svg" width="43.307" height="43.307" viewBox="0 0 43.307 43.307">
  <g id="Group_89" data-name="Group 89">
    <path id="Path_67" data-name="Path 67" d="M39.969,46.875l9.721-5.04-9.721-5.071Z" transform="translate(-22.261 -20.476)" fill="#fff"/>
    <path id="Path_68" data-name="Path 68" d="M21.653,0A21.654,21.654,0,1,0,43.307,21.654,21.654,21.654,0,0,0,21.653,0ZM36.407,28.881a3.863,3.863,0,0,1-3.306,3,102.542,102.542,0,0,1-11.449.424A102.581,102.581,0,0,1,10.2,31.885a3.86,3.86,0,0,1-3.3-3,32.733,32.733,0,0,1-.533-7.228A32.732,32.732,0,0,1,6.9,14.426a3.861,3.861,0,0,1,3.3-3A102.685,102.685,0,0,1,21.659,11a102.642,102.642,0,0,1,11.449.424,3.862,3.862,0,0,1,3.306,3,32.729,32.729,0,0,1,.529,7.228A32.732,32.732,0,0,1,36.407,28.881Z" fill="#fff"/>
  </g>
</svg>
