<svg xmlns="http://www.w3.org/2000/svg" width="13.593" height="13.983" viewBox="0 0 13.593 13.983">
  <g id="phone-call_3_" data-name="phone-call (3)" transform="translate(-2.949)">
    <path id="Path_106" data-name="Path 106" d="M111.435,1.832A6.213,6.213,0,0,0,107.013,0a.5.5,0,0,0,0,.991,5.263,5.263,0,0,1,5.263,5.263.5.5,0,0,0,.991,0A6.213,6.213,0,0,0,111.435,1.832Z" transform="translate(-96.725 0)" fill="#fff"/>
    <path id="Path_107" data-name="Path 107" d="M109.4,46.953a.5.5,0,0,0,.991,0,3.379,3.379,0,0,0-3.375-3.375h0a.5.5,0,0,0,0,.991A2.387,2.387,0,0,1,109.4,46.953Z" transform="translate(-96.725 -40.699)" fill="#fff"/>
    <path id="Path_108" data-name="Path 108" d="M11.575,38.514a1.5,1.5,0,0,0-1.325.793.5.5,0,1,0,.818.56c.218-.319.317-.369.451-.363a6.383,6.383,0,0,1,2.287,1.675.513.513,0,0,1,0,.362,1.71,1.71,0,0,1-.849,1.07,1.59,1.59,0,0,1-1.274-.043,14.006,14.006,0,0,1-4.594-2.991l0,0A14,14,0,0,1,4.1,34.985a1.591,1.591,0,0,1-.043-1.274,1.71,1.71,0,0,1,1.069-.849.512.512,0,0,1,.361-.005A6.4,6.4,0,0,1,7.161,35.14c.007.139-.043.238-.362.455a.5.5,0,1,0,.559.818,1.5,1.5,0,0,0,.793-1.326,6.067,6.067,0,0,0-2.319-3.159,1.5,1.5,0,0,0-1.024-.006A2.667,2.667,0,0,0,3.154,33.3a2.551,2.551,0,0,0,.026,2.061,14.989,14.989,0,0,0,3.2,4.917l.01.01a14.993,14.993,0,0,0,4.911,3.2,2.94,2.94,0,0,0,1.107.231,2.271,2.271,0,0,0,.954-.2,2.667,2.667,0,0,0,1.376-1.655,1.5,1.5,0,0,0-.005-1.021A6.065,6.065,0,0,0,11.575,38.514Z" transform="translate(0 -29.732)" fill="#fff"/>
  </g>
</svg>
