<svg xmlns="http://www.w3.org/2000/svg" width="19.098" height="19.012" viewBox="0 0 19.098 19.012">
  <path id="Path_131" data-name="Path 131" d="M18.548,14.816l-2.76-2.761a1.967,1.967,0,0,0-1.4-.572,2.063,2.063,0,0,0-1.467.612l-1.074,1.074a13.084,13.084,0,0,1-3.1-2.254A13.092,13.092,0,0,1,6.5,7.817L7.571,6.742a2.03,2.03,0,0,0,.037-2.865l-2.76-2.76A1.958,1.958,0,0,0,3.45.542a2.065,2.065,0,0,0-1.442.586A5.91,5.91,0,0,0,.139,4.534C-.482,7.565.944,10.481,5.061,14.6c4.6,4.6,8.525,4.955,9.619,4.955a3.635,3.635,0,0,0,.4-.018,4.555,4.555,0,0,0,3.473-1.9A2.09,2.09,0,0,0,18.548,14.816Zm-.916,2.077a3.372,3.372,0,0,1-2.689,1.466,2.64,2.64,0,0,1-.264.01c-.979,0-4.5-.332-8.781-4.608-3.8-3.8-5.129-6.4-4.6-8.99A4.661,4.661,0,0,1,2.753,2.05l.035-.026.031-.031a.889.889,0,0,1,.631-.266.782.782,0,0,1,.559.227l2.76,2.76A.844.844,0,0,1,6.733,5.9L5.517,7.12l-.02.021a.97.97,0,0,0-.105,1.128,14.4,14.4,0,0,0,2.522,3.483,14.379,14.379,0,0,0,3.474,2.516,1.071,1.071,0,0,0,.513.136.948.948,0,0,0,.72-.331l1.141-1.141a.886.886,0,0,1,.629-.264.789.789,0,0,1,.561.226l2.758,2.76A.932.932,0,0,1,17.632,16.893Z" transform="translate(0 -0.542)" fill="gray"/>
</svg>
