<svg id="Group_237" data-name="Group 237" xmlns="http://www.w3.org/2000/svg" width="24.44" height="16.293" viewBox="0 0 24.44 16.293">
  <path id="Path_122" data-name="Path 122" d="M23.187,85.333H1.253A1.257,1.257,0,0,0,0,86.586v13.787a1.257,1.257,0,0,0,1.253,1.253H23.187a1.257,1.257,0,0,0,1.253-1.253V86.586A1.257,1.257,0,0,0,23.187,85.333Zm-.47.94-9.775,7.332a1.31,1.31,0,0,1-1.442,0L1.724,86.273Zm-5.222,7.816,5.327,6.58c.005.007.012.012.018.018H1.6c.006-.006.012-.011.018-.018l5.327-6.58a.47.47,0,0,0-.731-.592L.94,100.013V86.86l10,7.5a2.243,2.243,0,0,0,2.569,0l10-7.5v13.152L18.225,93.5a.47.47,0,0,0-.731.592Z" transform="translate(0 -85.333)" fill="gray"/>
</svg>
