<svg id="facebook_4_" data-name="facebook (4)" xmlns="http://www.w3.org/2000/svg" width="16.863" height="16.863" viewBox="0 0 16.863 16.863">
  <g id="Group_241" data-name="Group 241">
    <path id="Path_126" data-name="Path 126" d="M14.755,0H2.108A2.11,2.11,0,0,0,0,2.108V14.755a2.11,2.11,0,0,0,2.108,2.108H8.432v-5.8H6.324V8.432H8.432V6.324a3.162,3.162,0,0,1,3.162-3.162H13.7V5.8H12.647c-.582,0-1.054-.055-1.054.527V8.432h2.635l-1.054,2.635H11.594v5.8h3.162a2.11,2.11,0,0,0,2.108-2.108V2.108A2.11,2.11,0,0,0,14.755,0Z" fill="#fff"/>
  </g>
</svg>
