<?xml version="1.0" encoding="utf-8"?>
<!-- Generator: Adobe Illustrator 25.4.1, SVG Export Plug-In . SVG Version: 6.00 Build 0)  -->
<svg version="1.1" id="Layer_1" xmlns="http://www.w3.org/2000/svg" xmlns:xlink="http://www.w3.org/1999/xlink" x="0px" y="0px"
	 viewBox="0 0 512 512" style="enable-background:new 0 0 512 512;" xml:space="preserve">
<style type="text/css">
	.st0{fill:#FFFFFF;}
</style>
<path d="M64,360.4c0-69.4,0-138.7,0-208.1c0.2-1,0.6-1.9,0.7-2.9c5.8-48.3,45.9-84.5,94.4-84.6c64.5-0.2,129-0.3,193.5,0
	c51.9,0.2,94.4,42.4,94.7,94.3c0.4,64.8,0.3,129.7,0,194.5c-0.2,42.2-29,79.3-69.7,90.6c-5.8,1.6-11.9,2.5-17.9,3.7
	c-69.4,0-138.8,0-208.1,0c-0.8-0.2-1.6-0.5-2.5-0.6c-39.8-5.8-66.7-27.7-80.3-65.5C66.4,375,65.6,367.6,64,360.4z M415.3,256.4
	c0-31.2,0.1-62.4-0.1-93.6c0-5.1-0.3-10.3-1.3-15.2c-6.3-29.8-31.5-50.6-62-50.7c-64.3-0.2-128.5-0.1-192.8,0
	c-2.7,0-5.5,0.1-8.2,0.6c-32.9,5.3-54.9,31.1-55,64.5c-0.1,63,0,126,0,189c0,3.4,0,6.8,0.6,10.1c5.3,32.9,31.1,55,64.4,55
	c63.1,0.1,126.3,0,189.4,0c4.7,0,9.5-0.3,14.1-1.3c30.2-6.5,50.6-31.9,50.7-63.2C415.4,319.7,415.3,288.1,415.3,256.4z"/>
<path class="st0" d="M359.7,448c6-1.2,12-2.1,17.9-3.7c40.7-11.3,69.5-48.4,69.7-90.6c0.3-64.8,0.3-129.7,0-194.5
	c-0.3-51.9-42.7-94-94.7-94.3c-64.5-0.3-129-0.3-193.5,0c-48.5,0.2-88.6,36.4-94.4,84.6c-0.1,1-0.4,1.9-0.7,2.9
	c0-29.4,0-58.9,0-88.3c128,0,255.9,0,384,0c0,128,0,256,0,384C418.6,448,389.2,448,359.7,448z"/>
<path class="st0" d="M64,360.4c1.6,7.2,2.4,14.6,4.8,21.4c13.6,37.8,40.5,59.7,80.3,65.5c0.8,0.1,1.7,0.4,2.5,0.6
	c-29.1,0-58.3,0-87.6,0C64,418.8,64,389.6,64,360.4z"/>
<path class="st0" d="M415.3,256.4c0,31.7,0.1,63.4,0,95.1c-0.1,31.3-20.5,56.7-50.7,63.2c-4.6,1-9.4,1.3-14.1,1.3
	c-63.1,0.1-126.3,0.1-189.4,0c-33.4,0-59.2-22.1-64.4-55c-0.5-3.3-0.6-6.7-0.6-10.1c0-63-0.1-126,0-189c0-33.4,22-59.2,55-64.5
	c2.7-0.4,5.5-0.6,8.2-0.6c64.3,0,128.5-0.2,192.8,0c30.5,0.1,55.6,20.9,62,50.7c1.1,5,1.3,10.1,1.3,15.2
	C415.4,194,415.3,225.2,415.3,256.4z M223.9,298.6c-1.8-1.7-2.4-2.3-3.1-2.9c-10.4-10.2-20.9-20.4-31.2-30.7
	c-3.9-3.9-8.5-6.2-14.1-5.4c-6.5,0.9-11.1,4.5-13.2,10.7c-2.2,6.4-0.5,12.1,4.2,16.8c14.4,14.2,28.8,28.3,43.3,42.4
	c9.1,8.9,17.3,9,26.3,0.1c17-16.6,34-33.3,51-50c20.1-19.7,40.2-39.5,60.4-59.2c4.5-4.4,6.6-9.7,5-15.9
	c-3.1-12.6-17.8-16.2-27.5-6.8c-29,28.3-57.9,56.7-86.8,85.1C233.4,287.9,228.8,293.3,223.9,298.6z"/>
<path d="M223.9,298.6c4.9-5.4,9.4-10.7,14.4-15.6c28.9-28.4,57.8-56.8,86.8-85.1c9.6-9.4,24.4-5.8,27.5,6.8c1.5,6.2-0.5,11.5-5,15.9
	c-20.1,19.7-40.3,39.4-60.4,59.2c-17,16.7-34,33.4-51,50c-9,8.8-17.2,8.7-26.3-0.1c-14.4-14.1-28.9-28.2-43.3-42.4
	c-4.8-4.7-6.4-10.4-4.2-16.8c2.1-6.2,6.7-9.8,13.2-10.7c5.6-0.8,10.2,1.5,14.1,5.4c10.4,10.2,20.8,20.4,31.2,30.7
	C221.5,296.3,222.1,296.9,223.9,298.6z"/>
</svg>
