<?xml version="1.0" encoding="utf-8"?>
<!-- Generator: Adobe Illustrator 24.0.2, SVG Export Plug-In . SVG Version: 6.00 Build 0)  -->
<svg version="1.1" id="Layer_1" xmlns="http://www.w3.org/2000/svg" xmlns:xlink="http://www.w3.org/1999/xlink" x="0px" y="0px"
	 viewBox="0 0 512 512" style="enable-background:new 0 0 512 512;" xml:space="preserve">
<style type="text/css">
	.st0{fill:#FDA59D}
</style>
<g>
	<g>
		<path class="st0" d="M477.8,262.4v166.8c0,26.9-21.8,48.7-48.7,48.7h-3.6c-6.6,0-12.8-1.3-18.5-3.7c-0.1,0-0.1,0-0.1,0
			c-5.7,2.3-11.9,3.6-18.4,3.6H124.2c-6.7,0-13-1.3-18.8-3.7c-5.8,2.4-12.3,3.8-19,3.8h-3.6c-26.9,0-48.6-21.8-48.6-48.7V262.4
			c0-24.4,17.9-44.6,41.3-48.1V82.8c0-26.9,21.8-48.7,48.7-48.7h264.4c26.9,0,48.7,21.8,48.7,48.7v131.5
			C460.3,218.3,477.8,238.3,477.8,262.4z"/>
	</g>
	<g>
		<g>
			<path d="M388.6,478.7H124.2c-5.6,0-11.1-0.9-16.3-2.6l-9-3l8.4-4.5c14.7-7.8,23.8-23,23.8-39.5V262.4c0-24.6-20-44.7-44.7-44.7
				h-3.6c-2.6,0-4.7,0.2-6.6,0.6l-4.9,1V82.8c0-29.1,23.7-52.8,52.8-52.8h264.4c29.1,0,52.8,23.7,52.8,52.8v136.4l-4.8-0.9
				c-2.5-0.4-4.9-0.7-7.5-0.7h-3.6c-24.6,0-44.6,20-44.6,44.7v166.8c0,16.8,9.2,32,24,39.7l8.9,4.6l-9.6,2.9
				C399,477.9,393.7,478.7,388.6,478.7z M119.4,470.3c1.6,0.2,3.1,0.2,4.7,0.2h264.4c1.3,0,2.6-0.1,4-0.2
				c-12.4-9.9-19.7-24.9-19.7-41.2V262.4c0-29.1,23.6-52.8,52.7-52.8h3.6c1.4,0,2.8,0.1,4.1,0.2V82.8c0-24.6-20-44.7-44.7-44.7
				H124.2c-24.6,0-44.7,20-44.7,44.7v126.9c1.1-0.1,2.2-0.1,3.3-0.1h3.6c29.1,0,52.8,23.7,52.8,52.8v166.8
				C139.2,445.4,131.8,460.4,119.4,470.3z"/>
		</g>
		<g>
			<path d="M388.6,481.9H124.2c-7.1,0-14-1.4-20.3-4.1l-8.7-3.7l8.6-3.8c1.2-0.5,2.3-1.1,3.4-1.6c14.7-7.8,23.8-23,23.8-39.5v-93.6
				h249.9v93.6c0,16.8,9.2,32,24,39.7c1.1,0.6,2.1,1,3.2,1.5l8.8,3.9l-8.6,3.7C402,480.6,395.3,481.9,388.6,481.9z M115.8,473
				c2.7,0.5,5.5,0.8,8.3,0.8h264.4c2.6,0,5.1-0.2,7.7-0.7c-14.6-9.7-23.4-26.1-23.4-43.9v-85.5H139.2v85.5
				C139.2,446.9,130.4,463.2,115.8,473z"/>
		</g>
		<g>
			<path d="M86.4,481.9h-3.6c-29.1,0-52.7-23.7-52.7-52.8V262.4c0-26.3,18.8-48.2,44.7-52.1c2.2-0.5,4.9-0.7,8-0.7h3.6
				c29.1,0,52.8,23.7,52.8,52.8v166.8c0,19.6-10.8,37.5-28.1,46.7c-1.3,0.7-2.6,1.3-4,1.9C100.4,480.6,93.5,481.9,86.4,481.9z
				 M82.8,217.7c-2.6,0-4.7,0.2-6.6,0.6c-22.1,3.3-38,21.8-38,44.1v166.8c0,24.6,20,44.7,44.6,44.7h3.6c6,0,11.9-1.2,17.4-3.5
				c1.1-0.5,2.3-1,3.4-1.6c14.7-7.8,23.8-23,23.8-39.5V262.4c0-24.6-20-44.7-44.7-44.7H82.8z"/>
		</g>
		<g>
			<path d="M429.1,481.9h-3.6c-6.7,0-13.2-1.2-19.3-3.7l-0.9-0.3c-1.6-0.7-2.9-1.3-4.1-1.9c-17.5-9.1-28.4-27.1-28.4-46.9V262.4
				c0-29.1,23.6-52.8,52.7-52.8h3.6c3.1,0,6,0.3,8.9,0.8c25.4,4.3,43.9,26.2,43.9,52v166.8C481.9,458.3,458.2,481.9,429.1,481.9z
				 M408,470.3l0.5,0.2c5.4,2.2,11.1,3.3,17,3.3h3.6c24.6,0,44.7-20,44.7-44.7V262.4c0-21.8-15.6-40.3-37.1-44
				c-2.5-0.5-4.9-0.7-7.5-0.7h-3.6c-24.6,0-44.6,20-44.6,44.7v166.8c0,16.8,9.2,32,24,39.7C406,469.4,407,469.8,408,470.3z"/>
		</g>
	</g>
</g>
</svg>
